<?xml version="1.0" encoding="UTF-8"?>
<svg version="1.1" xmlns="http://www.w3.org/2000/svg" width="512" height="512">
<path d="M0 0 C1.11558289 -0.0071553 2.23116577 -0.01431061 3.3805542 -0.02168274 C4.5951532 -0.02437164 5.8097522 -0.02706055 7.06115723 -0.02983093 C8.34798401 -0.03640213 9.63481079 -0.04297333 10.96063232 -0.04974365 C15.22134163 -0.07072165 19.48205101 -0.08114377 23.74279785 -0.09111023 C25.21507282 -0.09516086 26.6873476 -0.09927787 28.15962219 -0.10346031 C35.08210831 -0.12250238 42.00458387 -0.13673252 48.92709112 -0.14507228 C56.88932819 -0.15482549 64.85128585 -0.18109869 72.81342459 -0.22157317 C78.98522966 -0.25185777 85.15695524 -0.26655298 91.3288331 -0.26985329 C95.00639173 -0.27219075 98.68365158 -0.28097832 102.36112976 -0.30631447 C106.47485548 -0.33419842 110.58796764 -0.32972664 114.70178223 -0.32279968 C115.90018738 -0.33560974 117.09859253 -0.3484198 118.33331299 -0.36161804 C134.48373825 -0.26308407 147.39116549 5.73114216 159.0748291 16.66279602 C172.53966243 31.0554582 174.70587064 48.0833077 174.66647339 66.88316345 C174.67021403 68.57981072 174.6748172 70.27645627 174.68020403 71.97309911 C174.69239837 76.61708412 174.69217778 81.2609969 174.68981528 85.90499425 C174.68940621 90.92086085 174.70045494 95.93670456 174.70993042 100.95256042 C174.72652212 110.77312065 174.73203915 120.59365687 174.73315518 130.41422994 C174.73410657 138.40012807 174.73822145 146.38601829 174.74455643 154.37191391 C174.7621643 177.03084753 174.77139608 199.68976223 174.76989548 222.34870274 C174.76981557 223.56948731 174.76973565 224.79027188 174.76965332 226.04804993 C174.76957156 227.27033123 174.7694898 228.49261253 174.76940556 229.75193267 C174.76859292 249.55395764 174.78772624 269.3559065 174.81593005 289.15790947 C174.84468435 309.50757204 174.85846893 329.85719753 174.8567425 350.20688093 C174.85607945 361.62476083 174.86153438 373.04256095 174.8830986 384.46042252 C174.90134395 394.18306206 174.90563024 403.90558566 174.89207976 413.62823494 C174.88556689 418.58416989 174.88537192 423.53988263 174.90278625 428.4957962 C174.91859675 433.04224215 174.91557259 437.58829115 174.89821799 442.13472788 C174.89516555 443.76996708 174.8987134 445.40523651 174.90993814 447.04044004 C175.03461723 466.50982515 170.90726548 483.14837154 157.10217285 497.63545227 C147.92349185 506.16419777 135.59959581 512.23833376 122.91835022 512.29434204 C121.804142 512.30149734 120.68993378 512.30865265 119.54196167 512.31602478 C118.3237674 512.31871368 117.10557312 512.32140259 115.85046387 512.32417297 C113.92044273 512.33402977 113.92044273 512.33402977 111.95143127 512.34408569 C107.68528482 512.36509217 103.41913818 512.37548997 99.1529541 512.38545227 C97.6797528 512.38950214 96.20655168 512.39361913 94.73335075 512.39780235 C87.80552185 512.41685239 80.87770353 512.43107964 73.94985348 512.43941432 C65.97911633 512.44916401 58.00865856 512.47542455 50.03801972 512.51591522 C43.86198855 512.54620085 37.68603685 512.56089521 31.50993294 512.56419533 C27.82900609 512.56653312 24.14837771 512.57532473 20.4675312 512.60065651 C16.348907 512.62854199 12.2308956 512.62406837 8.11218262 512.61714172 C6.91220642 512.62995178 5.71223022 512.64276184 4.47589111 512.65596008 C-10.62824557 512.56392639 -24.38358679 507.32981863 -35.41345215 496.89717102 C-46.99278603 484.49973203 -51.77677554 470.43307649 -51.72120667 453.69395447 C-51.72206109 452.74961088 -51.72291551 451.80526728 -51.72379583 450.83230722 C-51.72544111 447.67243124 -51.71994483 444.51260851 -51.71447754 441.35273743 C-51.71419544 439.08587139 -51.71435385 436.81900526 -51.71492004 434.55213928 C-51.71520712 428.39979023 -51.7093249 422.24746066 -51.70234609 416.09511614 C-51.69609759 409.66490814 -51.69550756 403.2346997 -51.69432068 396.80448914 C-51.69156507 386.01229983 -51.68531756 375.22011852 -51.6763916 364.42793274 C-51.66720857 353.31334977 -51.66013209 342.19876874 -51.65588379 331.08418274 C-51.6554897 330.05603378 -51.6554897 330.05603378 -51.65508766 329.00711413 C-51.65378259 325.56840156 -51.65251889 322.12968897 -51.65127575 318.69097638 C-51.64091388 290.17636968 -51.62323045 261.66177073 -51.60095215 233.14717102 C-50.58748042 233.14277535 -50.58748042 233.14277535 -49.55353451 233.13829088 C-35.96321255 233.07900336 -22.37301961 233.01364084 -8.78285408 232.92509365 C-1.12051289 232.87541158 6.54177401 232.82992594 14.20422363 232.80073547 C20.92818141 232.77510476 27.65188979 232.73406978 34.37571716 232.68398476 C36.93026475 232.66740731 39.48485031 232.65583664 42.03944397 232.64955711 C67.29633945 232.58123969 89.43984926 230.59308727 108.93811035 212.83467102 C121.93274681 199.25951816 128.58900012 181.96677854 128.48547363 163.19697571 C127.72336107 145.12156034 119.78404538 127.1385973 106.45373535 114.76045227 C91.07967342 102.68918311 74.48530521 97.86708887 55.22644043 97.82832336 C54.06415924 97.81827774 52.90187805 97.80823212 51.70437622 97.79788208 C47.90078176 97.76723745 44.09725706 97.75006715 40.2935791 97.73310852 C37.64128122 97.71438179 34.98899952 97.69490128 32.3367157 97.67442322 C26.09328051 97.62785785 19.84982831 97.59100703 13.60630959 97.55775034 C6.49126198 97.51937058 -0.62369657 97.47000264 -7.7386688 97.41976619 C-22.35936119 97.3167777 -36.98011742 97.22741101 -51.60095215 97.14717102 C-51.67772973 90.54934746 -51.72985363 83.95164131 -51.76574707 77.35346985 C-51.78072837 75.11416824 -51.80112048 72.87489544 -51.82727051 70.63569641 C-52.06338401 49.88085657 -50.89501504 32.18660637 -35.98400879 16.3129425 C-26.43093287 6.67321009 -13.70617443 0.06059273 0 0 Z M37.08654785 306.83467102 C29.72891072 314.72740904 25.83792287 325.01042173 26.1529541 335.79560852 C27.09646975 344.81142474 30.88122501 353.43388022 37.96960449 359.25996399 C41.08274376 362.95969115 41.06578528 365.8308483 40.9654541 370.44795227 C40.97108871 371.24315781 40.97672333 372.03836334 40.98252869 372.85766602 C40.99894169 375.39227131 40.98348673 377.92512744 40.96154785 380.45967102 C40.94487958 382.98334406 40.93597534 385.5058483 40.95127869 388.02954102 C40.96045829 389.59563616 40.95173391 391.16198071 40.92164612 392.72781372 C40.95571668 399.61797473 43.31563167 404.60077347 47.64904785 409.89717102 C53.3844867 414.58980281 58.43149996 416.89060369 65.9498291 416.52217102 C72.9787408 415.44597401 77.29740899 411.69224101 81.95373535 406.53779602 C85.35163848 400.91748057 85.66069685 394.65738872 85.53186035 388.24482727 C85.53266678 386.76240333 85.53532785 385.27997944 85.53967285 383.79756165 C85.53771123 381.5017259 85.52402335 379.20844483 85.47814941 376.91304016 C85.22443101 362.46810876 85.22443101 362.46810876 90.30529785 356.81513977 C91.66573064 355.58786694 93.02989582 354.36470899 94.39904785 353.14717102 C99.75428466 345.50597869 101.17788691 335.50550193 99.83654785 326.39717102 C97.51871482 316.24004284 91.47983327 307.56637849 82.77404785 301.89717102 C67.59996335 293.29852313 49.94938155 294.88888738 37.08654785 306.83467102 Z " fill="#000000" transform="translate(310.6009521484375,-0.1471710205078125)"/>
<path d="M0 0 C1.65290026 -0.00576172 1.65290026 -0.00576172 3.33919245 -0.01163983 C5.15476992 -0.01034011 5.15476992 -0.01034011 7.00702572 -0.00901413 C8.29308474 -0.01198525 9.57914376 -0.01495637 10.90417427 -0.01801753 C14.47680144 -0.02608607 18.04940852 -0.02787703 21.62204373 -0.028615 C25.47430436 -0.03046586 29.32655456 -0.03801347 33.17880917 -0.04475021 C41.60466056 -0.05833409 50.0305072 -0.06435864 58.45636773 -0.06876087 C63.71896131 -0.07152379 68.98155305 -0.0757613 74.24414539 -0.08026505 C88.81805875 -0.0924589 103.39197063 -0.10275726 117.96588898 -0.10614014 C119.36517521 -0.10646949 119.36517521 -0.10646949 120.79272985 -0.10680549 C121.72781096 -0.10702377 122.66289207 -0.10724204 123.62630898 -0.10746694 C125.52111312 -0.1079104 127.41591726 -0.10835696 129.3107214 -0.10880661 C130.25060824 -0.10902804 131.19049509 -0.10924947 132.15886336 -0.10947761 C147.37986979 -0.11342349 162.60082829 -0.13087059 177.82181621 -0.15416613 C193.45345941 -0.17789674 209.08507857 -0.1903428 224.71674007 -0.19150805 C233.49144153 -0.19242397 242.26608057 -0.19815514 251.04076481 -0.21632767 C258.51474537 -0.23175188 265.98864422 -0.23683553 273.46263767 -0.22858956 C277.27361625 -0.22469096 281.08443041 -0.22557377 284.8953886 -0.23964691 C289.03403722 -0.2547898 293.17231766 -0.24649579 297.3109808 -0.23606491 C298.50575072 -0.24412132 299.70052065 -0.25217772 300.93149573 -0.26047826 C313.93653187 -0.18397219 323.67336222 2.8313516 333.35344601 11.63142776 C334.09594601 12.45642776 334.83844601 13.28142776 335.60344601 14.13142776 C336.84094601 15.39986526 336.84094601 15.39986526 338.10344601 16.69392776 C345.53238888 25.72150392 347.5593445 37.81996226 346.60344601 49.13142776 C344.3958573 59.54548756 340.54909922 67.96096023 332.60344601 75.13142776 C331.67532101 75.97705276 330.74719601 76.82267776 329.79094601 77.69392776 C320.22183838 85.47647565 309.69133743 86.42978974 297.77027035 86.3988533 C295.84429729 86.40564997 295.84429729 86.40564997 293.87941569 86.41258395 C290.33106661 86.42477287 286.7828121 86.42455835 283.23444688 86.4221952 C279.40129588 86.42178598 275.56817477 86.43283619 271.7350378 86.44231033 C264.23064936 86.45889915 256.72629234 86.46441894 249.22188709 86.46553509 C243.11901909 86.46648665 237.01616143 86.47060231 230.9132967 86.47693634 C213.59508881 86.49454359 196.27690568 86.50377611 178.95868877 86.50227539 C178.0257238 86.50219548 177.09275882 86.50211557 176.13152218 86.50203323 C174.73035777 86.50191059 174.73035777 86.50191059 173.30088701 86.50178547 C158.16876346 86.5009729 143.03673952 86.52010472 127.90464476 86.54830997 C112.35196096 86.57706944 96.79932569 86.59084855 81.24661463 86.58912241 C72.52107706 86.58845953 63.79564391 86.59390701 55.07013035 86.61547852 C47.63983194 86.63373075 40.20968527 86.63800463 32.7793741 86.62445967 C28.99237845 86.6179501 25.20567355 86.61773933 21.41870594 86.63516617 C17.30276624 86.65391108 13.18749351 86.64129 9.07153988 86.62590408 C7.88921506 86.63619121 6.70689025 86.64647834 5.4887374 86.65707719 C-7.44324145 86.55070895 -19.21364113 83.16042106 -28.58405399 73.99080276 C-37.18114156 64.69836253 -41.11606079 55.54952642 -41.49811649 42.72127151 C-40.80385421 28.85255595 -35.5972385 18.92013382 -25.70905399 9.38142776 C-18.63825019 3.4314363 -9.20050047 0.01204093 0 0 Z " fill="#000000" transform="translate(68.3965539932251,121.86857223510742)"/>
</svg>
